<svg xmlns="http://www.w3.org/2000/svg" viewBox="0 0 481.12 162.4"><defs><style>.cls-1{font-size:60px;font-family:UDDigiKyokashoN-B, UD Digi Kyokasho N-B;}.cls-2,.cls-4{fill:#e4a52a;}.cls-3{fill:#fffaf2;}.cls-4,.cls-5,.cls-6{fill-rule:evenodd;}.cls-5{fill:#a98567;}.cls-6{fill:#471f1f;}</style></defs><g id="圖層_2" data-name="圖層 2"><g id="Layer_2" data-name="Layer 2"><text class="cls-1" transform="translate(181.12 100.51)">浪<tspan class="cls-2" x="60" y="0">元</tspan><tspan x="120" y="0">小賣店</tspan></text><circle class="cls-3" cx="81.2" cy="81.2" r="77.78"/><path class="cls-4" d="M81.2,3.42a77.86,77.86,0,0,1,75.54,96.36c-4.51,3.36-10,6.71-14.26,7.09-8.8.77-18.07-.93-21-9.74s-.77-24.72-.77-24.72-1.08-10.81-9.58-11.74S94,57,92.42,51.09s-2-21.48-5.56-26.42-5.66-4.48-5.66-4.48V3.42A77.82,77.82,0,0,0,5.66,99.78c4.51,3.36,10,6.71,14.25,7.09,8.81.77,18.08-.93,21-9.74s.77-24.72.77-24.72,1.08-10.81,9.58-11.74S68.43,57,70,51.09s2-21.48,5.56-26.42,5.66-4.48,5.66-4.48Z"/><path class="cls-5" d="M81.2,95.48c1.46,21.27,22.19,31.24,37.29,22.51l.62-41.1-14.37,6.65a21.08,21.08,0,0,1-9.58,8.65A44.48,44.48,0,0,1,81.2,95.48Z"/><path class="cls-6" d="M81.2,0A81.19,81.19,0,1,1,23.78,23.78,81,81,0,0,1,81.2,0ZM58,71.45a1.78,1.78,0,1,0,1.78,1.78A1.78,1.78,0,0,0,58,71.45Zm46.35,0a1.78,1.78,0,1,0,1.78,1.78,1.78,1.78,0,0,0-1.78-1.78Zm-7,0a1.78,1.78,0,1,0,1.78,1.78,1.78,1.78,0,0,0-1.78-1.78ZM101,66a1.78,1.78,0,1,0,1.77,1.77A1.77,1.77,0,0,0,101,66ZM65.05,71.45a1.78,1.78,0,1,0,1.78,1.78,1.78,1.78,0,0,0-1.78-1.78ZM61.42,66a1.78,1.78,0,1,0,1.78,1.77A1.77,1.77,0,0,0,61.42,66ZM81.2,111.88c-3.83,0-6.94,2-6.94,4.53,0,2.06,2.11,3.8,5,4.35,0,.16,0,.31,0,.47a4.38,4.38,0,0,1-1.46,2.19,7.58,7.58,0,0,1-3,1.6,6.24,6.24,0,0,1-3.29.06,5,5,0,0,1-3.1-2.62,1.84,1.84,0,0,0-3.24,1.73,8.65,8.65,0,0,0,5.34,4.43,9.89,9.89,0,0,0,5.26-.06,11.42,11.42,0,0,0,4.46-2.37,10,10,0,0,0,.92-.92,9.86,9.86,0,0,0,.91.92,11.46,11.46,0,0,0,4.47,2.37,9.85,9.85,0,0,0,5.25.06,8.63,8.63,0,0,0,5.34-4.43,1.84,1.84,0,0,0-3.24-1.73,5,5,0,0,1-3.09,2.62,6.27,6.27,0,0,1-3.3-.06,7.54,7.54,0,0,1-3-1.6A4.47,4.47,0,0,1,83,121.23a3.4,3.4,0,0,0,0-.45c2.94-.53,5.1-2.29,5.1-4.37,0-2.5-3.11-4.53-6.94-4.53ZM77.62,72.65c-3.42-2.41-9.81-7.5-8.88-11.28.49-2,2.46-3.26,5.17-3.93a35.76,35.76,0,0,1,14.57,0c2.72.67,4.69,1.94,5.18,3.93.92,3.78-5.46,8.87-8.89,11.28,3.55,5.26,8,7.86,12.73,8.35a18.5,18.5,0,0,0,7-.69l.17,0a23.87,23.87,0,0,0,3.72-1.49,31,31,0,0,0,10.07-8.33c.76-1,1.5-2,2.18-3v0a39.65,39.65,0,0,0,4.84-31.32,49.57,49.57,0,0,0-4.9-12.22,64.55,64.55,0,0,0-8.11-11.34,75.71,75.71,0,0,0-62.5,0c-15.73,17.83-16.8,36-11.21,49.14a36.84,36.84,0,0,0,2.95,5.61,2.46,2.46,0,0,1,.17.27h0a34.48,34.48,0,0,0,6.41,7.36,24.79,24.79,0,0,0,12.41,6c6.17.88,12.38-1.49,16.94-8.25ZM56.31,40.4c-3.18,0-5.76,3.29-5.76,7.34s2.58,7.34,5.76,7.34,5.75-3.29,5.75-7.34-2.58-7.34-5.75-7.34Zm49.78,0c-3.18,0-5.75,3.29-5.75,7.34s2.57,7.34,5.75,7.34,5.76-3.29,5.76-7.34-2.58-7.34-5.76-7.34ZM66.88,103.66c-2,0-3.69,2.07-3.69,4.63s1.65,4.63,3.69,4.63,3.69-2.07,3.69-4.63-1.66-4.63-3.69-4.63Zm28.64,0c-2,0-3.69,2.07-3.69,4.63s1.65,4.63,3.69,4.63,3.69-2.07,3.69-4.63-1.65-4.63-3.69-4.63Zm13,20.36a1.84,1.84,0,1,1,0-3.68h7.25v-3.22H105.26a1.85,1.85,0,0,1,0-3.69h10.49V87.56a1.55,1.55,0,0,1,0-.22,35,35,0,0,1,.5-6.79,33.52,33.52,0,0,1-5.33,3.34,29.2,29.2,0,0,1-3.82,1.6,32.67,32.67,0,0,1-51.81,0,31.71,31.71,0,0,1-9.16-4.94,35.2,35.2,0,0,1,.49,6.89.49.49,0,0,1,0,.12v25.87h7.25a1.85,1.85,0,1,1,0,3.69H46.64v3.22h9.84a1.84,1.84,0,1,1,0,3.68H47.72c7.55,7.61,16.53,19.15,16,30.58a76.17,76.17,0,0,0,35,0c-.57-11.43,8.41-23,16-30.58ZM58,153c-.22-9.78-9-20-15.84-26.48a3,3,0,0,1-.66-.62,90.94,90.94,0,0,0-7.2-6.1,2.87,2.87,0,0,1,3.42-4.61s1.25.93,3.18,2.55V103.49A20.94,20.94,0,0,1,31,110.1a20,20,0,0,1-13.36-.55,23.06,23.06,0,0,1-8.51-6A75.57,75.57,0,0,0,58,153ZM5.76,81.08c1.82,13.31,7.59,20.61,14,23.15a14.38,14.38,0,0,0,9.56.39,15.48,15.48,0,0,0,8-5.81,20.27,20.27,0,0,0,3.61-11.09v-.16c0-.11,0-.21,0-.32.13-4.85-1-10.55-4.07-16.93a43.54,43.54,0,0,1-3.38-6.43C28.27,51.65,28,35.77,37.68,19.56a76.45,76.45,0,0,0-9.83,8.29A75.22,75.22,0,0,0,5.76,81.08Zm119-61.52q.45.75.87,1.5A55.94,55.94,0,0,1,131,34.7a45.36,45.36,0,0,1-5.48,35.63c-3,6.44-4.22,12.18-4.06,17.06v.11a20.39,20.39,0,0,0,3.62,11.31,15.45,15.45,0,0,0,8,5.81,14.41,14.41,0,0,0,9.57-.39c6.4-2.54,12.17-9.84,14-23.15a75.22,75.22,0,0,0-22.09-53.23,76.41,76.41,0,0,0-9.84-8.29Zm28.56,84a23.06,23.06,0,0,1-8.51,6,20,20,0,0,1-13.36.55,21,21,0,0,1-9.89-6.62v14.27c1.93-1.63,3.17-2.54,3.19-2.56a2.87,2.87,0,0,1,3.42,4.61,88.9,88.9,0,0,0-7.21,6.11,3,3,0,0,1-.66.62c-6.81,6.47-15.61,16.69-15.83,26.47a75.57,75.57,0,0,0,48.85-49.43ZM64.59,86.79a27.81,27.81,0,0,0,4.34,2.78,26.92,26.92,0,0,0,28.89-2.79l-.9-.07c-5.81-.6-11.32-3.49-15.72-9.18C76.56,83.55,70.71,86.43,64.59,86.79Z"/><path class="cls-6" d="M46.79,150.35a29.36,29.36,0,0,1,4.64-6.95,11.82,11.82,0,0,1,4.4-3.09L61,152.39l-.46,2.68Z"/><path class="cls-6" d="M115.77,150.35a29.53,29.53,0,0,0-4.63-6.95,11.89,11.89,0,0,0-4.41-3.09l-5.16,12.08.45,2.68Z"/></g></g></svg>